<?xml version="1.0" encoding="utf-8"?>
<!-- Generator: Adobe Illustrator 24.0.0, SVG Export Plug-In . SVG Version: 6.00 Build 0)  -->
<svg version="1.1" id="Layer_1" xmlns="http://www.w3.org/2000/svg" xmlns:xlink="http://www.w3.org/1999/xlink" x="0px" y="0px"
	 viewBox="0 0 268.1 109" style="enable-background:new 0 0 268.1 109;" xml:space="preserve">
<g>
	<path d="M265.3,0h2.8v42.8h-2.8V0z"/>
	<path d="M244.4,12.1h2.8v7.3h0.1c1-2.8,2.7-4.8,4.9-6.2s4.9-2,7.9-2
		c0.4,0,0.8,0,1.1,0.1c0.3,0,0.7,0.1,1.1,0.2v2.8c-0.3-0.1-0.7-0.2-1.2-0.2c-0.4-0.1-1.1-0.1-2-0.1c-2,0-3.8,0.4-5.3,1.1
		s-2.7,1.6-3.7,2.8c-1,1.1-1.7,2.4-2.2,3.9s-0.7,3-0.7,4.6V43h-2.8L244.4,12.1L244.4,12.1z"/>
	<path d="M235.2,0h2.8v6.4h-2.8V0z M235.2,12.1h2.8v30.7h-2.8V12.1z"/>
	<path d="M226,12.1h2.8v29.2c0,1.8-0.2,3.5-0.7,5.2c-0.4,1.8-1.2,3.3-2.4,4.7
		s-2.9,2.5-5.1,3.4c-2.2,0.9-5.1,1.3-8.6,1.3c-4.8,0-8.6-0.8-11.2-2.3c-2.6-1.6-4.2-4.2-4.7-8h2.8c0.2,1.2,0.5,2.3,1,3.2
		c0.6,1,1.4,1.8,2.4,2.5s2.4,1.3,4,1.6s3.5,0.5,5.8,0.5c3,0,5.4-0.4,7.2-1.1s3.3-1.7,4.3-2.8c1-1.2,1.7-2.5,2-3.9
		c0.4-1.4,0.5-2.9,0.5-4.3v-6.4H226c-1.4,2.6-3.3,4.4-5.8,5.6s-5.3,1.7-8.6,1.7c-3,0-5.6-0.4-7.7-1.3c-2.1-0.9-3.8-2-5.2-3.5
		c-1.3-1.5-2.3-3.2-2.9-5.1c-0.6-1.9-0.9-3.9-0.9-5.9s0.3-3.9,1-5.8c0.6-1.9,1.6-3.5,3-5s3.1-2.6,5.2-3.4c2.1-0.9,4.7-1.3,7.6-1.3
		c1.4,0,2.7,0.1,4.1,0.4c1.4,0.2,2.7,0.6,4,1.1s2.5,1.2,3.5,2.2c1.1,0.9,2,2.1,2.7,3.5l0.1,0.1L226,12.1L226,12.1z M211.5,13.5
		c-1.8,0-3.6,0.3-5.3,0.8s-3.2,1.3-4.4,2.4c-1.3,1-2.3,2.4-3.1,4s-1.1,3.6-1.1,5.8c0,4.4,1.2,7.8,3.7,10.1s6,3.4,10.6,3.4
		c2,0,3.9-0.3,5.6-0.8c1.7-0.6,3.2-1.4,4.5-2.5s2.3-2.5,3-4.2c0.7-1.7,1.1-3.8,1.1-6.1c0-4.1-1.3-7.3-3.8-9.5
		C219.6,14.6,216.1,13.5,211.5,13.5L211.5,13.5z"/>
</g>
<g>
	<path d="
		M167.2,13.5c-2.9,0-5.3,0.5-7.1,1.4s-3.3,2-4.4,3.4c-1.1,1.4-1.8,2.8-2.3,4.4c-0.4,1.6-0.6,3.1-0.6,4.4c0,2.7,0.4,5,1.3,6.8
		c0.9,1.8,2,3.3,3.4,4.4s2.9,1.9,4.5,2.4c1.7,0.4,3.3,0.7,4.9,0.7c1.8,0,3.5-0.3,5.1-0.8c1.7-0.6,3.1-1.4,4.4-2.5
		c1.3-1.2,2.3-2.6,3.1-4.3s1.1-3.8,1.1-6.1c0-2.2-0.3-4.2-1-5.9c-0.7-1.8-1.6-3.2-2.8-4.4s-2.6-2.1-4.2-2.8
		C170.8,13.8,169.1,13.5,167.2,13.5L167.2,13.5z M150.4,12.1h2.8v6.7h0.1c0.4-0.9,0.9-1.8,1.6-2.8c0.7-1,1.6-1.7,2.8-2.5
		c1.1-0.7,2.4-1.3,4-1.7c1.5-0.5,3.3-0.7,5.3-0.7c2.7,0,5,0.5,7.1,1.4s3.8,2.1,5.2,3.6s2.4,3.2,3.1,5.2c0.7,2,1.1,4,1.1,6.2
		c0,2.4-0.4,4.7-1.3,6.7c-0.8,2-1.9,3.7-3.4,5.2c-1.5,1.4-3.2,2.5-5.2,3.3s-4.2,1.1-6.5,1.1c-1.9,0-3.6-0.2-5.1-0.7
		c-1.5-0.4-2.8-1-3.9-1.7c-1.1-0.8-2.1-1.6-2.8-2.5s-1.4-1.7-1.8-2.6h-0.1V109h-3L150.4,12.1L150.4,12.1z"/>
	<path d="M141.1,0h2.8v6.4h-2.8V0z M141.1,12.1h2.8v30.7h-2.8V12.1z"/>
	<path d="M132.8,21.1c-0.2-2.6-1.2-4.5-3-5.7s-4.6-1.9-8.6-1.9
		c-1.9,0-3.5,0.2-4.7,0.5c-1.3,0.3-2.3,0.8-3.1,1.3c-0.8,0.6-1.3,1.2-1.7,2c-0.3,0.7-0.5,1.5-0.5,2.3c0,1.7,0.6,2.9,1.7,3.7
		c1.2,0.8,2.7,1.3,4.5,1.5l9.8,1.3c1.4,0.2,2.7,0.5,3.9,0.9s2.2,0.9,3.1,1.6c0.9,0.6,1.5,1.5,2,2.5c0.5,1,0.7,2.1,0.7,3.5
		c0,2.1-0.5,3.7-1.6,5c-1,1.2-2.3,2.1-3.8,2.8c-1.5,0.6-3.1,1-4.8,1.1c-1.7,0.2-3.2,0.3-4.5,0.3c-2.1,0-4.1-0.2-5.9-0.6
		s-3.3-1-4.6-1.8s-2.4-1.9-3.2-3.2c-0.8-1.4-1.2-3-1.3-4.9h2.8c0.1,0.8,0.2,1.7,0.5,2.6c0.2,0.9,0.8,1.8,1.6,2.6
		c0.9,0.8,2.2,1.5,3.8,2s4,0.8,7,0.8c4,0,6.9-0.6,8.6-1.7c1.7-1.2,2.6-2.8,2.6-5c0-1.8-0.6-3.1-1.7-4c-1.2-0.8-2.6-1.4-4.4-1.6
		l-10.8-1.4c-1-0.1-2-0.3-3-0.6c-1-0.3-1.9-0.8-2.8-1.4c-0.8-0.6-1.5-1.4-2.1-2.3c-0.5-0.9-0.8-2.1-0.8-3.5c0-0.9,0.2-1.8,0.5-2.8
		s1-1.9,2-2.8s2.3-1.6,4-2.2s3.8-0.9,6.4-0.9c2.8,0,5.2,0.3,7,0.9s3.3,1.3,4.3,2.3s1.8,2,2.2,3.2s0.7,2.3,0.8,3.5L132.8,21.1
		L132.8,21.1z"/>
	<path d="M101.1,21.1c-0.2-2.6-1.2-4.5-3-5.7s-4.6-1.9-8.6-1.9
		c-1.9,0-3.5,0.2-4.7,0.5c-1.3,0.3-2.3,0.8-3.1,1.3c-0.8,0.6-1.3,1.2-1.7,2c-0.3,0.7-0.5,1.5-0.5,2.3c0,1.7,0.6,2.9,1.7,3.7
		c1.2,0.8,2.7,1.3,4.5,1.5l9.8,1.3c1.4,0.2,2.7,0.5,3.9,0.9c1.2,0.4,2.2,0.9,3.1,1.6c0.9,0.6,1.5,1.5,2,2.5c0.5,1,0.7,2.1,0.7,3.5
		c0,2.1-0.5,3.7-1.6,5c-1,1.2-2.3,2.1-3.8,2.8c-1.5,0.6-3.1,1-4.8,1.1c-1.7,0.2-3.2,0.3-4.5,0.3c-2.1,0-4.1-0.2-5.9-0.6
		s-3.3-1-4.6-1.8s-2.4-1.9-3.2-3.2c-0.8-1.4-1.2-3-1.3-4.9h2.8c0.1,0.8,0.2,1.7,0.5,2.6c0.2,0.9,0.8,1.8,1.6,2.6
		c0.9,0.8,2.2,1.5,3.8,2s4,0.8,7,0.8c4,0,6.9-0.6,8.6-1.7c1.7-1.2,2.6-2.8,2.6-5c0-1.8-0.6-3.1-1.7-4c-1.2-0.8-2.6-1.4-4.4-1.6
		l-10.8-1.4c-1-0.1-2-0.3-3-0.6c-1-0.3-1.9-0.8-2.8-1.4c-0.8-0.6-1.5-1.4-2.1-2.3c-0.5-0.9-0.8-2.1-0.8-3.5c0-0.9,0.2-1.8,0.5-2.8
		s1-1.9,2-2.8s2.3-1.6,4-2.2s3.8-0.9,6.4-0.9c2.8,0,5.2,0.3,7,0.9s3.3,1.3,4.3,2.3s1.8,2,2.2,3.2c0.4,1.2,0.7,2.3,0.8,3.5
		L101.1,21.1L101.1,21.1z"/>
	<path d="M38.3,27.4c0-2.2,0.4-4.2,1.1-6.2c0.8-2,1.9-3.7,3.4-5.2s3.3-2.7,5.4-3.6
		c2.2-0.9,4.6-1.4,7.4-1.4s5.2,0.5,7.3,1.4c2.2,0.9,4,2.1,5.5,3.6s2.6,3.2,3.4,5.2s1.2,4,1.2,6.2s-0.4,4.2-1.2,6.2
		c-0.8,2-1.9,3.7-3.4,5.2s-3.3,2.7-5.5,3.5c-2.1,0.9-4.6,1.3-7.3,1.3s-5.2-0.4-7.4-1.3c-2.1-0.9-3.9-2.1-5.4-3.5
		c-1.5-1.5-2.6-3.3-3.4-5.2C38.7,31.7,38.3,29.6,38.3,27.4z M41,27.4c0,1.8,0.3,3.5,0.9,5.2c0.6,1.6,1.5,3.1,2.7,4.4
		s2.8,2.3,4.6,3.1s4,1.2,6.4,1.2s4.6-0.4,6.4-1.2c1.8-0.8,3.4-1.8,4.6-3.1s2.2-2.8,2.8-4.4c0.6-1.7,0.9-3.4,0.9-5.2
		c0-1.7-0.3-3.4-0.9-5.1s-1.5-3.2-2.8-4.4c-1.2-1.3-2.7-2.4-4.6-3.2c-1.8-0.8-3.9-1.2-6.4-1.2s-4.6,0.4-6.4,1.2
		c-1.8,0.8-3.3,1.9-4.6,3.2c-1.2,1.3-2.1,2.8-2.7,4.4S41,25.7,41,27.4z"/>
	<path d="M31.1,12.1h2.8v29.2c0,1.8-0.2,3.5-0.7,5.2c-0.4,1.8-1.2,3.3-2.4,4.7
		s-2.9,2.5-5.1,3.4s-5.1,1.3-8.6,1.3c-4.8,0-8.6-0.8-11.2-2.3c-2.6-1.6-4.2-4.2-4.7-8H4c0.2,1.2,0.5,2.3,1,3.2
		c0.6,1,1.4,1.8,2.4,2.5s2.4,1.3,4,1.6s3.5,0.5,5.8,0.5c3,0,5.4-0.4,7.2-1.1c1.8-0.7,3.3-1.7,4.3-2.8c1-1.2,1.7-2.5,2-3.9
		c0.4-1.4,0.5-2.9,0.5-4.3v-6.4h-0.1c-1.4,2.6-3.3,4.4-5.8,5.6s-5.3,1.7-8.6,1.7c-3,0-5.6-0.4-7.7-1.3s-3.8-2-5.2-3.5
		c-1.3-1.5-2.3-3.2-2.9-5.1C0.3,30.4,0,28.4,0,26.4s0.3-3.9,1-5.8c0.6-1.9,1.6-3.5,3-5c1.4-1.4,3.1-2.6,5.2-3.4
		c2.1-0.9,4.7-1.3,7.6-1.3c1.4,0,2.7,0.1,4.1,0.4c1.4,0.2,2.7,0.6,4,1.1s2.5,1.2,3.5,2.2c1.1,0.9,2,2.1,2.7,3.5l0.1,0.1L31.1,12.1
		L31.1,12.1z M16.6,13.5c-1.8,0-3.6,0.3-5.3,0.8s-3.2,1.3-4.4,2.4c-1.3,1-2.3,2.4-3.1,4s-1.1,3.6-1.1,5.8c0,4.4,1.2,7.8,3.7,10.1
		S12.4,40,17,40c2,0,3.9-0.3,5.6-0.8c1.7-0.6,3.2-1.4,4.5-2.5s2.3-2.5,3-4.2c0.7-1.7,1.1-3.8,1.1-6.1c0-4.1-1.3-7.3-3.8-9.5
		C24.7,14.6,21.2,13.5,16.6,13.5L16.6,13.5z"/>
</g>
</svg>
